<?xml version="1.0" encoding="utf-8"?>
<!-- Generator: Adobe Illustrator 24.1.3, SVG Export Plug-In . SVG Version: 6.00 Build 0)  -->
<svg version="1.1" xmlns="http://www.w3.org/2000/svg" xmlns:xlink="http://www.w3.org/1999/xlink" x="0px" y="0px"
	 viewBox="0 0 1024 1024" style="enable-background:new 0 0 1024 1024;" xml:space="preserve">
<style type="text/css">
	.st0{display:none;}
	.st1{display:inline;fill:#FFFFFF;}
</style>
	<g id="Layer_1" class="st0">
	<rect class="st1" width="1024" height="1024"/>
</g>
	<g id="Layer_2">
	<g>
		<path d="M630.08,247.44v37.84h50.88v-37.84c19.98-9.53,33.81-29.85,33.81-53.45c0-32.73-26.53-59.25-59.25-59.25
			c-32.72,0-59.25,26.53-59.25,59.25C596.27,217.6,610.11,237.92,630.08,247.44z" fill="#1DB954"/>
		<path d="M381.53,285.29v-37.84c19.98-9.53,33.81-29.85,33.81-53.45c0-32.73-26.53-59.25-59.25-59.25
			c-32.72,0-59.25,26.53-59.25,59.25c0,23.61,13.84,43.93,33.81,53.45v37.84H381.53z" fill="#1DB954"/>
		<path d="M738.78,303.07H283.36c-90.46,0-163.79,73.33-163.79,163.79v258.62c0,90.46,73.33,163.79,163.79,163.79h455.42
			c90.46,0,163.79-73.33,163.79-163.79V466.86C902.57,376.4,829.23,303.07,738.78,303.07z M619.25,753.67
			c-12.26,48.38-55.99,84.19-108.18,84.19c-52.19,0-95.92-35.81-108.18-84.19c-2.56-10.12,5.01-20.01,15.45-20.01H603.8
			C614.24,733.67,621.81,743.55,619.25,753.67z M849.58,593.19c0,47.06-38.15,85.21-85.21,85.21h-506.6
			c-47.06,0-85.21-38.15-85.21-85.21V476.99c0-47.06,38.15-85.21,85.21-85.21h506.6c47.06,0,85.21,38.15,85.21,85.21V593.19z" fill="#1DB954"/>
		<path d="M328.69,494.57c-25.07,0-45.39,20.32-45.39,45.39s20.32,45.38,45.39,45.38c25.06,0,45.38-20.32,45.38-45.38
			S353.75,494.57,328.69,494.57z" fill="#1DB954"/>
		<circle cx="693.45" cy="539.96" r="45.38" fill="#1DB954"/>
		<path d="M1024,581.08c0-52.19-35.81-95.92-84.18-108.18c-10.12-2.56-20.01,5-20.01,15.44v185.47c0,10.44,9.89,18.01,20.01,15.45
			C988.19,677,1024,633.27,1024,581.08z" fill="#1DB954"/>
		<path d="M84.19,472.9C35.81,485.15,0,528.89,0,581.08C0,633.27,35.81,677,84.19,689.26c10.12,2.56,20.01-5.01,20.01-15.45V488.34
			C104.19,477.9,94.31,470.33,84.19,472.9z" fill="#1DB954"/>
	</g>
</g>
</svg>

